%TF.GenerationSoftware,KiCad,Pcbnew,6.0.11-2627ca5db0~126~ubuntu22.04.1*%
%TF.CreationDate,2023-04-05T12:46:53+02:00*%
%TF.ProjectId,boxPCB,626f7850-4342-42e6-9b69-6361645f7063,rev?*%
%TF.SameCoordinates,Original*%
%TF.FileFunction,Copper,L2,Inr*%
%TF.FilePolarity,Positive*%
%FSLAX46Y46*%
G04 Gerber Fmt 4.6, Leading zero omitted, Abs format (unit mm)*
G04 Created by KiCad (PCBNEW 6.0.11-2627ca5db0~126~ubuntu22.04.1) date 2023-04-05 12:46:53*
%MOMM*%
%LPD*%
G01*
G04 APERTURE LIST*
G04 Aperture macros list*
%AMRoundRect*
0 Rectangle with rounded corners*
0 $1 Rounding radius*
0 $2 $3 $4 $5 $6 $7 $8 $9 X,Y pos of 4 corners*
0 Add a 4 corners polygon primitive as box body*
4,1,4,$2,$3,$4,$5,$6,$7,$8,$9,$2,$3,0*
0 Add four circle primitives for the rounded corners*
1,1,$1+$1,$2,$3*
1,1,$1+$1,$4,$5*
1,1,$1+$1,$6,$7*
1,1,$1+$1,$8,$9*
0 Add four rect primitives between the rounded corners*
20,1,$1+$1,$2,$3,$4,$5,0*
20,1,$1+$1,$4,$5,$6,$7,0*
20,1,$1+$1,$6,$7,$8,$9,0*
20,1,$1+$1,$8,$9,$2,$3,0*%
G04 Aperture macros list end*
%TA.AperFunction,ComponentPad*%
%ADD10R,1.500000X3.000000*%
%TD*%
%TA.AperFunction,ComponentPad*%
%ADD11O,1.500000X3.000000*%
%TD*%
%TA.AperFunction,ComponentPad*%
%ADD12RoundRect,0.250000X0.725000X-0.600000X0.725000X0.600000X-0.725000X0.600000X-0.725000X-0.600000X0*%
%TD*%
%TA.AperFunction,ComponentPad*%
%ADD13O,1.950000X1.700000*%
%TD*%
%TA.AperFunction,ComponentPad*%
%ADD14RoundRect,0.250000X0.600000X0.725000X-0.600000X0.725000X-0.600000X-0.725000X0.600000X-0.725000X0*%
%TD*%
%TA.AperFunction,ComponentPad*%
%ADD15O,1.700000X1.950000*%
%TD*%
%TA.AperFunction,ComponentPad*%
%ADD16C,5.600000*%
%TD*%
%TA.AperFunction,ComponentPad*%
%ADD17R,1.700000X1.700000*%
%TD*%
%TA.AperFunction,ComponentPad*%
%ADD18O,1.700000X1.700000*%
%TD*%
%TA.AperFunction,ComponentPad*%
%ADD19R,3.000000X1.500000*%
%TD*%
%TA.AperFunction,ComponentPad*%
%ADD20O,3.000000X1.500000*%
%TD*%
%TA.AperFunction,ComponentPad*%
%ADD21RoundRect,0.250000X0.750000X-0.600000X0.750000X0.600000X-0.750000X0.600000X-0.750000X-0.600000X0*%
%TD*%
%TA.AperFunction,ComponentPad*%
%ADD22O,2.000000X1.700000*%
%TD*%
%TA.AperFunction,Conductor*%
%ADD23C,1.250000*%
%TD*%
G04 APERTURE END LIST*
D10*
%TO.N,/ENDSTOP_5V_Y1*%
%TO.C,J105*%
X89475392Y-263430093D03*
X89475392Y-268430093D03*
D11*
%TO.N,/ENDSTOP_GND_Y1*%
X94475392Y-268430093D03*
X94475392Y-263430093D03*
%TO.N,/ENDSTOP_SIGNAL_Y1*%
X99475392Y-268430093D03*
X99475392Y-263430093D03*
%TD*%
D12*
%TO.N,/ENDSTOP_SIGNAL_Z*%
%TO.C,J111*%
X17045000Y-52810000D03*
D13*
%TO.N,/ENDSTOP_GND_Z*%
X17045000Y-50310000D03*
%TO.N,/ENDSTOP_5V_Z*%
X17045000Y-47810000D03*
%TD*%
D10*
%TO.N,/RED_Y1*%
%TO.C,J121*%
X109650392Y-263430093D03*
X109650392Y-268430093D03*
D11*
%TO.N,/BLUE_Y1*%
X114650392Y-263430093D03*
X114650392Y-268430093D03*
%TO.N,/GREEN_Y1*%
X119650392Y-263430093D03*
X119650392Y-268430093D03*
%TO.N,/BLACK_Y1*%
X124650392Y-268430093D03*
X124650392Y-263430093D03*
%TD*%
D10*
%TO.N,/BLACK_Y2*%
%TO.C,J115*%
X190200392Y-247205093D03*
X190200392Y-242205093D03*
D11*
%TO.N,/GREEN_Y2*%
X185200392Y-247205093D03*
X185200392Y-242205093D03*
%TO.N,/BLUE_Y2*%
X180200392Y-247205093D03*
X180200392Y-242205093D03*
%TO.N,/RED_Y2*%
X175200392Y-247205093D03*
X175200392Y-242205093D03*
%TO.N,+12V*%
X170200392Y-247205093D03*
X170200392Y-242205093D03*
%TO.N,GND*%
X165200392Y-247205093D03*
X165200392Y-242205093D03*
%TD*%
D14*
%TO.N,/EN_X*%
%TO.C,J113*%
X45805392Y-137450093D03*
D15*
%TO.N,/DIR_X*%
X43305392Y-137450093D03*
%TO.N,/CLK_X*%
X40805392Y-137450093D03*
%TO.N,GND*%
X38305392Y-137450093D03*
%TD*%
D16*
%TO.N,N/C*%
%TO.C,H123*%
X158250000Y-148640000D03*
%TD*%
D17*
%TO.N,+12V*%
%TO.C,J137*%
X280205392Y-179850093D03*
D18*
X280205392Y-182390093D03*
X280205392Y-184930093D03*
X280205392Y-187470093D03*
X280205392Y-190010093D03*
X280205392Y-192550093D03*
X280205392Y-195090093D03*
X280205392Y-197630093D03*
X280205392Y-200170093D03*
X280205392Y-202710093D03*
%TD*%
D10*
%TO.N,/RED_Y2*%
%TO.C,J120*%
X174875392Y-267655093D03*
X174875392Y-262655093D03*
D11*
%TO.N,/BLUE_Y2*%
X179875392Y-262655093D03*
X179875392Y-267655093D03*
%TO.N,/GREEN_Y2*%
X184875392Y-262655093D03*
X184875392Y-267655093D03*
%TO.N,/BLACK_Y2*%
X189875392Y-262655093D03*
X189875392Y-267655093D03*
%TD*%
D10*
%TO.N,/BLACK_E*%
%TO.C,J131*%
X277850392Y-267505093D03*
X277850392Y-262505093D03*
D11*
%TO.N,/GREEN_E*%
X282850392Y-262505093D03*
X282850392Y-267505093D03*
%TO.N,/BLUE_E*%
X287850392Y-267505093D03*
X287850392Y-262505093D03*
%TO.N,/RED_E*%
X292850392Y-267505093D03*
X292850392Y-262505093D03*
%TD*%
D10*
%TO.N,/ENDSTOP_5V_X*%
%TO.C,J104*%
X24075392Y-269080093D03*
X24075392Y-264080093D03*
D11*
%TO.N,/ENDSTOP_GND_X*%
X29075392Y-269080093D03*
X29075392Y-264080093D03*
%TO.N,/ENDSTOP_SIGNAL_X*%
X34075392Y-269080093D03*
X34075392Y-264080093D03*
%TD*%
D14*
%TO.N,/RED_Z*%
%TO.C,J128*%
X106015392Y-119350093D03*
D15*
%TO.N,/BLUE_Z*%
X103515392Y-119350093D03*
%TO.N,/GREEN_Z*%
X101015392Y-119350093D03*
%TO.N,/BLACK_Z*%
X98515392Y-119350093D03*
%TD*%
D16*
%TO.N,N/C*%
%TO.C,H117*%
X128920000Y-223620000D03*
%TD*%
%TO.N,N/C*%
%TO.C,H101*%
X324840000Y-5050000D03*
%TD*%
D10*
%TO.N,+12V*%
%TO.C,J130*%
X288525392Y-39245093D03*
X288525392Y-34245093D03*
D11*
%TO.N,GND*%
X293525392Y-39245093D03*
X293525392Y-34245093D03*
%TD*%
D16*
%TO.N,N/C*%
%TO.C,H126*%
X136370000Y-149070000D03*
%TD*%
D10*
%TO.N,+12V*%
%TO.C,J129*%
X308375392Y-39345093D03*
X308375392Y-34345093D03*
D11*
%TO.N,GND*%
X313375392Y-34345093D03*
X313375392Y-39345093D03*
%TD*%
D16*
%TO.N,N/C*%
%TO.C,H121*%
X63770000Y-223550000D03*
%TD*%
D12*
%TO.N,/ENDSTOP_SIGNAL_Y1*%
%TO.C,J109*%
X17645000Y-68780000D03*
D13*
%TO.N,/ENDSTOP_GND_Y1*%
X17645000Y-66280000D03*
%TO.N,/ENDSTOP_5V_Y1*%
X17645000Y-63780000D03*
%TD*%
D17*
%TO.N,/EN_Y2*%
%TO.C,J101*%
X59240392Y-118385093D03*
D18*
%TO.N,unconnected-(J101-Pad2)*%
X56700392Y-118385093D03*
%TO.N,unconnected-(J101-Pad3)*%
X54160392Y-118385093D03*
%TO.N,unconnected-(J101-Pad4)*%
X51620392Y-118385093D03*
%TO.N,unconnected-(J101-Pad5)*%
X49080392Y-118385093D03*
%TO.N,unconnected-(J101-Pad6)*%
X46540392Y-118385093D03*
%TO.N,/CLK_Y2*%
X44000392Y-118385093D03*
%TO.N,/DIR_Y2*%
X41460392Y-118385093D03*
%TD*%
D19*
%TO.N,+12V*%
%TO.C,J125*%
X172205392Y-48745093D03*
X177205392Y-48745093D03*
D20*
%TO.N,GND*%
X172205392Y-53745093D03*
X177205392Y-53745093D03*
%TD*%
D16*
%TO.N,N/C*%
%TO.C,H116*%
X28180000Y-223560000D03*
%TD*%
D12*
%TO.N,/ENDSTOP_SIGNAL_X*%
%TO.C,J108*%
X17585000Y-83800000D03*
D13*
%TO.N,/ENDSTOP_GND_X*%
X17585000Y-81300000D03*
%TO.N,/ENDSTOP_5V_X*%
X17585000Y-78800000D03*
%TD*%
D17*
%TO.N,/EN_Y1*%
%TO.C,J103*%
X131755392Y-118295093D03*
D18*
%TO.N,unconnected-(J103-Pad2)*%
X129215392Y-118295093D03*
%TO.N,unconnected-(J103-Pad3)*%
X126675392Y-118295093D03*
%TO.N,unconnected-(J103-Pad4)*%
X124135392Y-118295093D03*
%TO.N,unconnected-(J103-Pad5)*%
X121595392Y-118295093D03*
%TO.N,unconnected-(J103-Pad6)*%
X119055392Y-118295093D03*
%TO.N,/CLK_Y1*%
X116515392Y-118295093D03*
%TO.N,/DIR_Y1*%
X113975392Y-118295093D03*
%TD*%
D16*
%TO.N,N/C*%
%TO.C,H110*%
X202310000Y-51760000D03*
%TD*%
%TO.N,N/C*%
%TO.C,H112*%
X193670000Y-223630000D03*
%TD*%
D19*
%TO.N,GND*%
%TO.C,J119*%
X294915392Y-138415093D03*
X289915392Y-138415093D03*
D20*
%TO.N,+12V*%
X289915392Y-143415093D03*
X294915392Y-143415093D03*
%TD*%
D16*
%TO.N,N/C*%
%TO.C,H113*%
X144430000Y-106820000D03*
%TD*%
%TO.N,N/C*%
%TO.C,H124*%
X202420000Y-109920000D03*
%TD*%
D17*
%TO.N,/EN_X*%
%TO.C,J102*%
X156510392Y-118295093D03*
D18*
%TO.N,unconnected-(J102-Pad2)*%
X153970392Y-118295093D03*
%TO.N,unconnected-(J102-Pad3)*%
X151430392Y-118295093D03*
%TO.N,unconnected-(J102-Pad4)*%
X148890392Y-118295093D03*
%TO.N,unconnected-(J102-Pad5)*%
X146350392Y-118295093D03*
%TO.N,unconnected-(J102-Pad6)*%
X143810392Y-118295093D03*
%TO.N,/CLK_X*%
X141270392Y-118295093D03*
%TO.N,/DIR_X*%
X138730392Y-118295093D03*
%TD*%
D10*
%TO.N,+5V*%
%TO.C,J133*%
X308385392Y-64795093D03*
X308385392Y-59795093D03*
D11*
%TO.N,GND*%
X313385392Y-64795093D03*
X313385392Y-59795093D03*
%TD*%
D16*
%TO.N,N/C*%
%TO.C,H111*%
X71300000Y-148820000D03*
%TD*%
%TO.N,N/C*%
%TO.C,H103*%
X201330000Y-148520000D03*
%TD*%
D10*
%TO.N,/BLACK_Z*%
%TO.C,J132*%
X239575392Y-267080093D03*
X239575392Y-262080093D03*
D11*
%TO.N,/GREEN_Z*%
X244575392Y-267080093D03*
X244575392Y-262080093D03*
%TO.N,/BLUE_Z*%
X249575392Y-262080093D03*
X249575392Y-267080093D03*
%TO.N,/RED_Z*%
X254575392Y-267080093D03*
X254575392Y-262080093D03*
%TD*%
D14*
%TO.N,/EN_Y1*%
%TO.C,J114*%
X108925392Y-137755093D03*
D15*
%TO.N,/DIR_Y1*%
X106425392Y-137755093D03*
%TO.N,/CLK_Y1*%
X103925392Y-137755093D03*
%TO.N,GND*%
X101425392Y-137755093D03*
%TD*%
D16*
%TO.N,N/C*%
%TO.C,H125*%
X28150000Y-148740000D03*
%TD*%
D10*
%TO.N,/BLACK_Y1*%
%TO.C,J116*%
X124575392Y-242280093D03*
X124575392Y-247280093D03*
D11*
%TO.N,/GREEN_Y1*%
X119575392Y-242280093D03*
X119575392Y-247280093D03*
%TO.N,/BLUE_Y1*%
X114575392Y-247280093D03*
X114575392Y-242280093D03*
%TO.N,/RED_Y1*%
X109575392Y-247280093D03*
X109575392Y-242280093D03*
%TO.N,+12V*%
X104575392Y-242280093D03*
X104575392Y-247280093D03*
%TO.N,GND*%
X99575392Y-247280093D03*
X99575392Y-242280093D03*
%TD*%
D16*
%TO.N,N/C*%
%TO.C,H119*%
X42580000Y-106870000D03*
%TD*%
%TO.N,N/C*%
%TO.C,H118*%
X144220000Y-30720000D03*
%TD*%
D10*
%TO.N,+5V*%
%TO.C,J134*%
X288595392Y-59725093D03*
X288595392Y-64725093D03*
D11*
%TO.N,GND*%
X293595392Y-64725093D03*
X293595392Y-59725093D03*
%TD*%
D10*
%TO.N,/BLACK_X*%
%TO.C,J117*%
X61125392Y-242630093D03*
X61125392Y-247630093D03*
D11*
%TO.N,/GREEN_X*%
X56125392Y-247630093D03*
X56125392Y-242630093D03*
%TO.N,/BLUE_X*%
X51125392Y-242630093D03*
X51125392Y-247630093D03*
%TO.N,/RED_X*%
X46125392Y-247630093D03*
X46125392Y-242630093D03*
%TO.N,+12V*%
X41125392Y-242630093D03*
X41125392Y-247630093D03*
%TO.N,GND*%
X36125392Y-247630093D03*
X36125392Y-242630093D03*
%TD*%
D10*
%TO.N,/ENDSTOP_5V_Y2*%
%TO.C,J106*%
X154275392Y-262630093D03*
X154275392Y-267630093D03*
D11*
%TO.N,/ENDSTOP_GND_Y2*%
X159275392Y-267630093D03*
X159275392Y-262630093D03*
%TO.N,/ENDSTOP_SIGNAL_Y2*%
X164275392Y-267630093D03*
X164275392Y-262630093D03*
%TD*%
D19*
%TO.N,+12V*%
%TO.C,J135*%
X18095392Y-15555093D03*
X23095392Y-15555093D03*
D20*
%TO.N,GND*%
X18095392Y-20555093D03*
X23095392Y-20555093D03*
%TD*%
D14*
%TO.N,/EN_Y2*%
%TO.C,J112*%
X173675392Y-138300093D03*
D15*
%TO.N,/DIR_Y2*%
X171175392Y-138300093D03*
%TO.N,/CLK_Y2*%
X168675392Y-138300093D03*
%TO.N,GND*%
X166175392Y-138300093D03*
%TD*%
D10*
%TO.N,/RED_X*%
%TO.C,J122*%
X46125392Y-269080093D03*
X46125392Y-264080093D03*
D11*
%TO.N,/BLUE_X*%
X51125392Y-269080093D03*
X51125392Y-264080093D03*
%TO.N,/GREEN_X*%
X56125392Y-264080093D03*
X56125392Y-269080093D03*
%TO.N,/BLACK_X*%
X61125392Y-264080093D03*
X61125392Y-269080093D03*
%TD*%
D16*
%TO.N,N/C*%
%TO.C,H122*%
X269040000Y-148810000D03*
%TD*%
D10*
%TO.N,/ENDSTOP_5V_Z*%
%TO.C,J107*%
X220025392Y-262155093D03*
X220025392Y-267155093D03*
D11*
%TO.N,/ENDSTOP_GND_Z*%
X225025392Y-262155093D03*
X225025392Y-267155093D03*
%TO.N,/ENDSTOP_SIGNAL_Z*%
X230025392Y-262155093D03*
X230025392Y-267155093D03*
%TD*%
D14*
%TO.N,/RED_E*%
%TO.C,J127*%
X77575392Y-118555093D03*
D15*
%TO.N,/BLUE_E*%
X75075392Y-118555093D03*
%TO.N,/GREEN_E*%
X72575392Y-118555093D03*
%TO.N,/BLACK_E*%
X70075392Y-118555093D03*
%TD*%
D16*
%TO.N,N/C*%
%TO.C,H108*%
X324540000Y-284210000D03*
%TD*%
%TO.N,N/C*%
%TO.C,H106*%
X42460000Y-30590000D03*
%TD*%
%TO.N,N/C*%
%TO.C,H114*%
X6100000Y-5130000D03*
%TD*%
%TO.N,N/C*%
%TO.C,H105*%
X93300000Y-148800000D03*
%TD*%
D10*
%TO.N,/AIRBRUSH_PLUS*%
%TO.C,J123*%
X311000392Y-267580093D03*
X311000392Y-262580093D03*
D11*
%TO.N,/AIRBRUSH_MINUS*%
X316000392Y-262580093D03*
X316000392Y-267580093D03*
%TD*%
D17*
%TO.N,GND*%
%TO.C,J136*%
X269465392Y-180075093D03*
D18*
X269465392Y-182615093D03*
X269465392Y-185155093D03*
X269465392Y-187695093D03*
X269465392Y-190235093D03*
X269465392Y-192775093D03*
X269465392Y-195315093D03*
X269465392Y-197855093D03*
X269465392Y-200395093D03*
X269465392Y-202935093D03*
%TD*%
D19*
%TO.N,+5V*%
%TO.C,J126*%
X176915392Y-106025093D03*
X171915392Y-106025093D03*
D20*
%TO.N,GND*%
X176915392Y-101025093D03*
X171915392Y-101025093D03*
%TD*%
D16*
%TO.N,N/C*%
%TO.C,H107*%
X93170000Y-223650000D03*
%TD*%
D17*
%TO.N,+5V*%
%TO.C,J138*%
X292155392Y-180000093D03*
D18*
X292155392Y-182540093D03*
X292155392Y-185080093D03*
X292155392Y-187620093D03*
X292155392Y-190160093D03*
X292155392Y-192700093D03*
X292155392Y-195240093D03*
X292155392Y-197780093D03*
X292155392Y-200320093D03*
X292155392Y-202860093D03*
%TD*%
D19*
%TO.N,+5V*%
%TO.C,J124*%
X224585392Y-144935093D03*
X219585392Y-144935093D03*
D20*
%TO.N,GND*%
X224585392Y-139935093D03*
X219585392Y-139935093D03*
%TD*%
D21*
%TO.N,/AIRBRUSH_PLUS*%
%TO.C,J118*%
X168680392Y-83365093D03*
D22*
%TO.N,/AIRBRUSH_MINUS*%
X168680392Y-80865093D03*
%TD*%
D16*
%TO.N,N/C*%
%TO.C,H104*%
X158220000Y-223520000D03*
%TD*%
%TO.N,N/C*%
%TO.C,H109*%
X251240000Y-51590000D03*
%TD*%
%TO.N,N/C*%
%TO.C,H120*%
X241649810Y-134138929D03*
%TD*%
D12*
%TO.N,/ENDSTOP_SIGNAL_Y2*%
%TO.C,J110*%
X31310000Y-69210000D03*
D13*
%TO.N,/ENDSTOP_GND_Y2*%
X31310000Y-66710000D03*
%TO.N,/ENDSTOP_5V_Y2*%
X31310000Y-64210000D03*
%TD*%
D16*
%TO.N,N/C*%
%TO.C,H115*%
X251210000Y-109680000D03*
%TD*%
%TO.N,N/C*%
%TO.C,H102*%
X5020000Y-285650000D03*
%TD*%
D23*
%TO.N,/EN_X*%
X156510392Y-118295093D02*
X156510392Y-120395093D01*
X48460392Y-140105093D02*
X45805392Y-137450093D01*
X136800392Y-140105093D02*
X48460392Y-140105093D01*
X156510392Y-120395093D02*
X136800392Y-140105093D01*
%TO.N,/CLK_X*%
X115033859Y-114090000D02*
X138301925Y-114090000D01*
X40805392Y-135998569D02*
X45463961Y-131340000D01*
X40805392Y-137450093D02*
X40805392Y-135998569D01*
X138301925Y-114090000D02*
X141270392Y-117058467D01*
X45463961Y-131340000D02*
X97783859Y-131340000D01*
X141270392Y-117058467D02*
X141270392Y-118295093D01*
X97783859Y-131340000D02*
X115033859Y-114090000D01*
%TO.N,/DIR_X*%
X43580392Y-137175093D02*
X43580392Y-136051996D01*
X45657296Y-133975092D02*
X123050393Y-133975092D01*
X123050393Y-133975092D02*
X138730392Y-118295093D01*
X43305392Y-137450093D02*
X43580392Y-137175093D01*
X43580392Y-136051996D02*
X45657296Y-133975092D01*
%TO.N,+12V*%
X104575392Y-242280093D02*
X93795299Y-231500000D01*
X45160000Y-231500000D02*
X41125392Y-235534608D01*
X280205392Y-202710093D02*
X251585485Y-231330000D01*
X104575392Y-235584608D02*
X104575392Y-247280093D01*
X170200392Y-234429608D02*
X170200392Y-247205093D01*
X288525392Y-39245093D02*
X286470392Y-41300093D01*
X286470392Y-139970093D02*
X289915392Y-143415093D01*
X93795299Y-231500000D02*
X45160000Y-231500000D01*
X173300000Y-231330000D02*
X170200392Y-234429608D01*
X41125392Y-235534608D02*
X41125392Y-247630093D01*
X170200392Y-242205093D02*
X159595299Y-231600000D01*
X251585485Y-231330000D02*
X173300000Y-231330000D01*
X286470392Y-41300093D02*
X286470392Y-139970093D01*
X108560000Y-231600000D02*
X104575392Y-235584608D01*
X159595299Y-231600000D02*
X108560000Y-231600000D01*
%TD*%
M02*
