M48
; DRILL file {KiCad 6.0.11-2627ca5db0~126~ubuntu22.04.1} date Mi 05 Apr 2023 12:46:50 CEST
; FORMAT={-:-/ absolute / inch / decimal}
; #@! TF.CreationDate,2023-04-05T12:46:50+02:00
; #@! TF.GenerationSoftware,Kicad,Pcbnew,6.0.11-2627ca5db0~126~ubuntu22.04.1
; #@! TF.FileFunction,Plated,1,4,PTH
FMAT,2
INCH
; #@! TA.AperFunction,Plated,PTH,ComponentDrill
T1C0.0374
; #@! TA.AperFunction,Plated,PTH,ComponentDrill
T2C0.0394
; #@! TA.AperFunction,Plated,PTH,ComponentDrill
T3C0.0453
; #@! TA.AperFunction,Plated,PTH,ComponentDrill
T4C0.1260
%
G90
G05
T1
X0.6711Y-1.8823
X0.6711Y-1.9807
X0.6711Y-2.0791
X0.6923Y-3.1024
X0.6923Y-3.2008
X0.6923Y-3.2992
X0.6947Y-2.511
X0.6947Y-2.6094
X0.6947Y-2.7079
X1.2327Y-2.528
X1.2327Y-2.6264
X1.2327Y-2.7248
X1.5081Y-5.4114
X1.6065Y-5.4114
X1.7049Y-5.4114
X1.8034Y-5.4114
X2.7589Y-4.6675
X2.8573Y-4.6675
X2.9557Y-4.6675
X3.0541Y-4.6675
X3.8786Y-4.6988
X3.977Y-4.6988
X3.9931Y-5.4234
X4.0754Y-4.6988
X4.0916Y-5.4234
X4.1738Y-4.6988
X4.19Y-5.4234
X4.2884Y-5.4234
X6.5423Y-5.4449
X6.6408Y-5.4449
X6.7392Y-5.4449
X6.8376Y-5.4449
T2
X1.6323Y-4.6608
X1.7323Y-4.6608
X1.8323Y-4.6608
X1.9323Y-4.6608
X2.0323Y-4.6608
X2.1323Y-4.6608
X2.2323Y-4.6608
X2.3323Y-4.6608
X4.4872Y-4.6573
X4.5872Y-4.6573
X4.6872Y-4.6573
X4.7872Y-4.6573
X4.8872Y-4.6573
X4.9872Y-4.6573
X5.0872Y-4.6573
X5.1872Y-4.6573
X5.4618Y-4.6573
X5.5618Y-4.6573
X5.6618Y-4.6573
X5.7618Y-4.6573
X5.8618Y-4.6573
X5.9618Y-4.6573
X6.0618Y-4.6573
X6.1618Y-4.6573
X6.641Y-3.1837
X6.641Y-3.2821
X10.6089Y-7.0896
X10.6089Y-7.1896
X10.6089Y-7.2896
X10.6089Y-7.3896
X10.6089Y-7.4896
X10.6089Y-7.5896
X10.6089Y-7.6896
X10.6089Y-7.7896
X10.6089Y-7.8896
X10.6089Y-7.9896
X11.0317Y-7.0807
X11.0317Y-7.1807
X11.0317Y-7.2807
X11.0317Y-7.3807
X11.0317Y-7.4807
X11.0317Y-7.5807
X11.0317Y-7.6807
X11.0317Y-7.7807
X11.0317Y-7.8807
X11.0317Y-7.9807
X11.5022Y-7.0866
X11.5022Y-7.1866
X11.5022Y-7.2866
X11.5022Y-7.3866
X11.5022Y-7.4866
X11.5022Y-7.5866
X11.5022Y-7.6866
X11.5022Y-7.7866
X11.5022Y-7.8866
X11.5022Y-7.9866
T3
X0.7124Y-0.6124
X0.7124Y-0.8093
X0.9093Y-0.6124
X0.9093Y-0.8093
X0.9479Y-10.3969
X0.9479Y-10.5937
X1.1447Y-10.3969
X1.1447Y-10.5937
X1.3416Y-10.3969
X1.3416Y-10.5937
X1.4223Y-9.5524
X1.4223Y-9.7492
X1.6191Y-9.5524
X1.6191Y-9.7492
X1.816Y-9.5524
X1.816Y-9.7492
X1.816Y-10.3969
X1.816Y-10.5937
X2.0128Y-9.5524
X2.0128Y-9.7492
X2.0128Y-10.3969
X2.0128Y-10.5937
X2.2097Y-9.5524
X2.2097Y-9.7492
X2.2097Y-10.3969
X2.2097Y-10.5937
X2.4065Y-9.5524
X2.4065Y-9.7492
X2.4065Y-10.3969
X2.4065Y-10.5937
X3.5227Y-10.3713
X3.5227Y-10.5681
X3.7195Y-10.3713
X3.7195Y-10.5681
X3.9164Y-10.3713
X3.9164Y-10.5681
X3.9203Y-9.5386
X3.9203Y-9.7354
X4.1171Y-9.5386
X4.1171Y-9.7354
X4.314Y-9.5386
X4.314Y-9.7354
X4.3169Y-10.3713
X4.3169Y-10.5681
X4.5108Y-9.5386
X4.5108Y-9.7354
X4.5138Y-10.3713
X4.5138Y-10.5681
X4.7077Y-9.5386
X4.7077Y-9.7354
X4.7106Y-10.3713
X4.7106Y-10.5681
X4.9045Y-9.5386
X4.9045Y-9.7354
X4.9075Y-10.3713
X4.9075Y-10.5681
X6.0738Y-10.3398
X6.0738Y-10.5366
X6.2707Y-10.3398
X6.2707Y-10.5366
X6.4675Y-10.3398
X6.4675Y-10.5366
X6.504Y-9.5356
X6.504Y-9.7325
X6.7008Y-9.5356
X6.7008Y-9.7325
X6.7683Y-3.9774
X6.7683Y-4.1742
X6.7797Y-1.9191
X6.7797Y-2.1159
X6.8849Y-10.3408
X6.8849Y-10.5376
X6.8977Y-9.5356
X6.8977Y-9.7325
X6.9652Y-3.9774
X6.9652Y-4.1742
X6.9766Y-1.9191
X6.9766Y-2.1159
X7.0817Y-10.3408
X7.0817Y-10.5376
X7.0945Y-9.5356
X7.0945Y-9.7325
X7.2786Y-10.3408
X7.2786Y-10.5376
X7.2914Y-9.5356
X7.2914Y-9.7325
X7.4754Y-10.3408
X7.4754Y-10.5376
X7.4882Y-9.5356
X7.4882Y-9.7325
X8.6451Y-5.5093
X8.6451Y-5.7061
X8.6624Y-10.3211
X8.6624Y-10.5179
X8.8419Y-5.5093
X8.8419Y-5.7061
X8.8593Y-10.3211
X8.8593Y-10.5179
X9.0561Y-10.3211
X9.0561Y-10.5179
X9.4321Y-10.3181
X9.4321Y-10.515
X9.629Y-10.3181
X9.629Y-10.515
X9.8258Y-10.3181
X9.8258Y-10.515
X10.0227Y-10.3181
X10.0227Y-10.515
X10.939Y-10.3348
X10.939Y-10.5317
X11.1358Y-10.3348
X11.1358Y-10.5317
X11.3327Y-10.3348
X11.3327Y-10.5317
X11.3593Y-1.3482
X11.3593Y-1.5451
X11.362Y-2.3514
X11.362Y-2.5482
X11.414Y-5.4494
X11.414Y-5.6463
X11.5295Y-10.3348
X11.5295Y-10.5317
X11.5561Y-1.3482
X11.5561Y-1.5451
X11.5589Y-2.3514
X11.5589Y-2.5482
X11.6108Y-5.4494
X11.6108Y-5.6463
X12.1408Y-1.3522
X12.1408Y-1.549
X12.1412Y-2.3541
X12.1412Y-2.551
X12.2441Y-10.3378
X12.2441Y-10.5346
X12.3376Y-1.3522
X12.3376Y-1.549
X12.338Y-2.3541
X12.338Y-2.551
X12.441Y-10.3378
X12.441Y-10.5346
T4
X0.1976Y-11.2461
X0.2402Y-0.202
X1.1083Y-5.8559
X1.1094Y-8.8016
X1.6717Y-1.2043
X1.6764Y-4.2075
X2.5106Y-8.8012
X2.8071Y-5.8591
X3.6681Y-8.8051
X3.6732Y-5.8583
X5.0756Y-8.8039
X5.3689Y-5.8689
X5.678Y-1.2094
X5.6862Y-4.2055
X6.2291Y-8.8
X6.2303Y-5.852
X7.6248Y-8.8043
X7.9264Y-5.8472
X7.965Y-2.0378
X7.9693Y-4.3276
X9.5138Y-5.2811
X9.8902Y-4.3181
X9.8913Y-2.0311
X10.5921Y-5.8587
X12.7772Y-11.1894
X12.789Y-0.1988
T0
M30
